<svg fill="none" height="16" viewBox="0 0 24 16" width="24" xmlns="http://www.w3.org/2000/svg"><g fill="#000000"><path d="m9.87381 6.99245c.49809-.25835.87459-.54609 1.13259-.85704.459-.56001.6856-1.30258.6856-2.22304 0-.89572-.2266-1.66148-.6796-2.30349-.7561-1.045771-2.03566-1.581034-3.84481-1.60888h-7.16759v15.0879h6.68305c.75306 0 1.45062-.0665 2.09567-.2026.64505-.1377 1.2031-.3899 1.67568-.7581.42-.3202.771-.7178 1.05-1.1865.4411-.7086.6616-1.5115.6616-2.4056 0-.86634-.1935-1.60426-.5775-2.21068-.3886-.60643-.9586-1.05042-1.71469-1.33197zm-6.91707-4.37183h3.22827c.70956 0 1.2946.0789 1.75364.23515.53105.2274.79657.68996.79657 1.39539 0 .63272-.20252 1.07517-.60305 1.32424-.40354.24906-.92708.37437-1.56913.37437h-3.6063zm5.10492 9.58368c-.35703.1779-.85957.2661-1.50312.2661h-3.6018v-4.02377h3.6513c.63605.00464 1.1311.09127 1.48512.25371.63006.29393.94358.83228.94358 1.61966 0 .9283-.32402 1.5532-.97508 1.8843z"/><path d="m21.6934.703857h-6.356v1.878063h6.356z"/><path d="m23.902 8.11562c-.132-.87405-.423-1.64291-.8761-2.30658-.4965-.75184-1.1266-1.30257-1.8931-1.65065-.7636-.34962-1.6232-.52443-2.5802-.52288-1.6067 0-2.9118.51824-3.9214 1.547-1.0066 1.03185-1.5106 2.51542-1.5106 4.44917 0 2.06212.5566 3.55192 1.6756 4.46622 1.1146.9158 2.4017 1.3722 3.8629 1.3722 1.7686 0 3.1442-.543 4.1268-1.6259.6286-.6838.9841-1.3568 1.0621-2.0173h-2.9282c-.1696.3264-.3661.5816-.5911.7673-.408.3403-.9391.5105-1.5901.5105-.6196 0-1.1446-.1408-1.5827-.4208-.723-.4486-1.1011-1.2345-1.1491-2.353h7.9912c.012-.96376-.018-1.70477-.096-2.21528zm-7.8231.28929c.105-.72554.36-1.30103.765-1.72645.405-.42388.9781-.63737 1.7117-.63891.6765 0 1.2421.19956 1.7026.60023.4545.40377.7111.99008.7636 1.76513z"/></g></svg>