<svg width="15" height="15" viewBox="0 0 15 15" fill="none" xmlns="http://www.w3.org/2000/svg">
<path d="M13 10.2011V12.3621C13 12.6829 12.7519 12.9491 12.432 12.9717C12.1647 12.9906 11.9466 13 11.7778 13C6.37763 13 2 8.62237 2 3.22222C2 3.05338 2.00944 2.83531 2.02833 2.56803C2.05095 2.24804 2.31713 2 2.63791 2H4.79895C4.95581 2 5.08719 2.11881 5.10293 2.27488C5.11708 2.41499 5.13022 2.52747 5.14238 2.61235C5.26599 3.47566 5.51849 4.29739 5.87976 5.05741C5.93775 5.1794 5.89993 5.32542 5.79002 5.40393L4.47106 6.3461C5.27404 8.22178 6.77822 9.72597 8.6539 10.529L9.59434 9.21227C9.67384 9.10105 9.82161 9.06279 9.94506 9.1214C10.705 9.48238 11.5267 9.73459 12.3899 9.85791C12.4742 9.87001 12.586 9.88303 12.7251 9.89708C12.8812 9.91285 13 10.0442 13 10.2011Z" fill="#1F2122"/>
</svg>
