<svg width="49" height="26" viewBox="0 0 49 26" fill="none" xmlns="http://www.w3.org/2000/svg">
<rect width="49" height="22" rx="11" fill="#5C5C5C"/>
<path d="M15.9743 12.613C15.901 13.1263 15.725 13.57 15.4463 13.944C15.1676 14.318 14.812 14.6077 14.3793 14.813C13.954 15.011 13.4773 15.11 12.9493 15.11C12.458 15.11 12.0033 15.0257 11.5853 14.857C11.1673 14.681 10.8006 14.4317 10.4853 14.109C10.1773 13.7863 9.93531 13.3977 9.75931 12.943C9.58331 12.4883 9.49531 11.9823 9.49531 11.425C9.49531 10.8603 9.58331 10.3543 9.75931 9.907C9.93531 9.45233 10.1773 9.06367 10.4853 8.741C10.8006 8.41833 11.1673 8.17267 11.5853 8.004C12.0033 7.828 12.458 7.74 12.9493 7.74C13.4846 7.74 13.965 7.84267 14.3903 8.048C14.823 8.246 15.1786 8.53567 15.4573 8.917C15.736 9.291 15.912 9.73833 15.9853 10.259H15.1713C15.0686 9.89233 14.9073 9.58433 14.6873 9.335C14.4746 9.08567 14.218 8.895 13.9173 8.763C13.6166 8.631 13.294 8.565 12.9493 8.565C12.502 8.565 12.0803 8.675 11.6843 8.895C11.2956 9.115 10.9803 9.43767 10.7383 9.863C10.4963 10.2883 10.3753 10.809 10.3753 11.425C10.3753 12.041 10.4963 12.5617 10.7383 12.987C10.9803 13.4123 11.2956 13.735 11.6843 13.955C12.0803 14.175 12.502 14.285 12.9493 14.285C13.294 14.285 13.613 14.2227 13.9063 14.098C14.207 13.966 14.4636 13.7753 14.6763 13.526C14.8963 13.2767 15.0576 12.9723 15.1603 12.613H15.9743ZM19.092 15.11C18.6227 15.11 18.1827 14.9963 17.772 14.769C17.3614 14.5417 17.0277 14.2153 16.771 13.79C16.5217 13.3573 16.397 12.8477 16.397 12.261C16.397 11.6743 16.5217 11.1683 16.771 10.743C17.0277 10.3103 17.3614 9.97667 17.772 9.742C18.1827 9.50733 18.6227 9.39 19.092 9.39C19.5614 9.39 19.9977 9.50733 20.401 9.742C20.8117 9.97667 21.1417 10.3103 21.391 10.743C21.6404 11.1683 21.765 11.6743 21.765 12.261C21.765 12.8477 21.6404 13.3573 21.391 13.79C21.1417 14.2153 20.8117 14.5417 20.401 14.769C19.9977 14.9963 19.5614 15.11 19.092 15.11ZM19.092 14.285C19.4 14.285 19.6897 14.208 19.961 14.054C20.2324 13.9 20.4524 13.6727 20.621 13.372C20.797 13.064 20.885 12.6937 20.885 12.261C20.885 11.8283 20.797 11.4617 20.621 11.161C20.4524 10.853 20.2324 10.6183 19.961 10.457C19.6897 10.2957 19.4 10.215 19.092 10.215C18.784 10.215 18.4907 10.2957 18.212 10.457C17.9407 10.611 17.717 10.842 17.541 11.15C17.365 11.4507 17.277 11.821 17.277 12.261C17.277 12.6937 17.3614 13.064 17.53 13.372C17.706 13.6727 17.9334 13.9 18.212 14.054C18.4907 14.208 18.784 14.285 19.092 14.285ZM25.0818 15.11C24.6785 15.11 24.3485 15.0183 24.0918 14.835C23.8351 14.6443 23.6335 14.4023 23.4868 14.109C23.3475 13.8083 23.2485 13.4967 23.1898 13.174C23.1311 12.844 23.1018 12.5397 23.1018 12.261C23.1018 11.865 23.1275 11.4947 23.1788 11.15C23.2375 10.8053 23.3365 10.501 23.4758 10.237C23.6151 9.973 23.8131 9.76767 24.0698 9.621C24.3338 9.467 24.6711 9.39 25.0818 9.39C25.5218 9.39 25.9215 9.51467 26.2808 9.764C26.6401 10.0133 26.9261 10.3543 27.1388 10.787C27.3588 11.2197 27.4688 11.711 27.4688 12.261C27.4688 12.811 27.3588 13.3023 27.1388 13.735C26.9188 14.1603 26.6255 14.4977 26.2588 14.747C25.8995 14.989 25.5071 15.11 25.0818 15.11ZM24.8618 14.274C25.1991 14.274 25.4961 14.1897 25.7528 14.021C26.0168 13.845 26.2221 13.6067 26.3688 13.306C26.5155 12.998 26.5888 12.6497 26.5888 12.261C26.5888 11.6743 26.4385 11.1903 26.1378 10.809C25.8371 10.4203 25.4118 10.226 24.8618 10.226C24.5391 10.226 24.2531 10.314 24.0038 10.49C23.7545 10.6587 23.5601 10.897 23.4208 11.205C23.2815 11.5057 23.2118 11.8577 23.2118 12.261C23.2118 12.6277 23.2705 12.965 23.3878 13.273C23.5125 13.5737 23.6958 13.8157 23.9378 13.999C24.1798 14.1823 24.4878 14.274 24.8618 14.274ZM22.3318 9.5H23.1788L23.2118 10.655V17.2H22.3318V9.5ZM29.1335 7.3V8.367H27.9895V7.3H29.1335ZM28.1215 9.5H29.0015V15H28.1215V9.5ZM33.8485 13.229H34.6735C34.6148 13.5883 34.4828 13.911 34.2775 14.197C34.0795 14.4757 33.8155 14.6993 33.4855 14.868C33.1628 15.0293 32.7888 15.11 32.3635 15.11C31.8501 15.11 31.3881 14.989 30.9775 14.747C30.5668 14.4977 30.2405 14.1603 29.9985 13.735C29.7638 13.3023 29.6465 12.811 29.6465 12.261C29.6465 11.711 29.7601 11.2197 29.9875 10.787C30.2221 10.3543 30.5411 10.0133 30.9445 9.764C31.3478 9.51467 31.8025 9.39 32.3085 9.39C32.8438 9.39 33.2948 9.511 33.6615 9.753C34.0355 9.98767 34.3105 10.336 34.4865 10.798C34.6698 11.2527 34.7431 11.8137 34.7065 12.481H30.5265C30.5631 12.8403 30.6621 13.1557 30.8235 13.427C30.9848 13.6983 31.1975 13.911 31.4615 14.065C31.7255 14.2117 32.0261 14.285 32.3635 14.285C32.7375 14.285 33.0528 14.1897 33.3095 13.999C33.5735 13.801 33.7531 13.5443 33.8485 13.229ZM32.3415 10.215C31.8868 10.215 31.5055 10.347 31.1975 10.611C30.8895 10.875 30.6841 11.2343 30.5815 11.689H33.8045C33.7751 11.205 33.6175 10.8383 33.3315 10.589C33.0528 10.3397 32.7228 10.215 32.3415 10.215ZM37.3702 15.11C36.9302 15.11 36.5268 14.989 36.1602 14.747C35.8008 14.4977 35.5148 14.1603 35.3022 13.735C35.0895 13.3023 34.9832 12.811 34.9832 12.261C34.9832 11.711 35.0858 11.2197 35.2912 10.787C35.4965 10.3543 35.7788 10.0133 36.1382 9.764C36.4975 9.51467 36.9082 9.39 37.3702 9.39C37.7808 9.39 38.1145 9.467 38.3712 9.621C38.6352 9.76767 38.8368 9.973 38.9762 10.237C39.1155 10.501 39.2108 10.8053 39.2622 11.15C39.3208 11.4947 39.3502 11.865 39.3502 12.261C39.3502 12.5397 39.3208 12.844 39.2622 13.174C39.2035 13.4967 39.1008 13.8083 38.9542 14.109C38.8148 14.4023 38.6168 14.6443 38.3602 14.835C38.1035 15.0183 37.7735 15.11 37.3702 15.11ZM37.5902 14.274C37.9642 14.274 38.2722 14.1823 38.5142 13.999C38.7635 13.8157 38.9468 13.5737 39.0642 13.273C39.1815 12.965 39.2402 12.6277 39.2402 12.261C39.2402 11.8577 39.1778 11.5057 39.0532 11.205C38.9358 10.897 38.7525 10.6587 38.5032 10.49C38.2612 10.314 37.9568 10.226 37.5902 10.226C37.0402 10.226 36.6148 10.4203 36.3142 10.809C36.0135 11.1903 35.8632 11.6743 35.8632 12.261C35.8632 12.6497 35.9365 12.998 36.0832 13.306C36.2372 13.6067 36.4425 13.845 36.6992 14.021C36.9632 14.1897 37.2602 14.274 37.5902 14.274ZM39.2402 7.3H40.1202V15H39.3172C39.3025 14.8387 39.2842 14.648 39.2622 14.428C39.2475 14.208 39.2402 14.032 39.2402 13.9V7.3Z" fill="#FFFEFD" fill-opacity="0.7"/>
<path d="M23.6522 25.1156L21.6707 23.1559C20.923 22.4164 19.9142 22.0011 18.8627 21.9999L31.4068 21.9999C30.4079 22.0023 29.446 22.3784 28.7103 23.0544L26.4117 25.1663C25.6257 25.8885 24.4111 25.8661 23.6522 25.1156Z" fill="#5C5C5C"/>
</svg>
