<svg fill="#00000" height="24" viewBox="0 0 24 24" width="24" xmlns="http://www.w3.org/2000/svg"><g  stroke="none"><path d="m20.4338 3.48523c-2.2545-2.24616-5.2538-3.48394826-8.4459-3.48523-3.18492 0-6.18895 1.23669-8.45836 3.4823-2.27344 2.24945-3.52661031 5.23883-3.52954 8.4066v.0036.0022c.00036621 1.9173.504089 3.8515 1.46027 5.617l-1.4274941 6.4883 6.5630541-1.4929c1.66223.8377 3.51687 1.2794 5.38747 1.2801h.0048c3.1844 0 6.1884-1.2368 8.4582-3.4826 2.2754-2.2513 3.5292-5.2369 3.5306-8.4066.0009-3.14739-1.2572-6.13512-3.5431-8.41277zm-8.4459 18.42887h-.0042c-1.6796-.0008-3.34387-.4225-4.81256-1.2199l-.31036-.1684-4.36414.9926.94794-4.3081-.18274-.3152c-.90857-1.5668-1.38867-3.2964-1.38867-5.0024.00348-5.52191 4.54047-10.01953 10.11433-10.01953 2.6928.0011 5.2229 1.04498 7.1243 2.93902 1.9301 1.92334 2.9927 4.43958 2.9918 7.08531-.0022 5.5232-4.5401 10.0166-10.1157 10.0166z"/><path d="m8.72626 6.6499h-.52552c-.18292 0-.47991.06848-.73114.34186-.2514.27356-.95983.93475-.95983 2.27948 0 1.34476.98272 2.64406 1.11969 2.82656.13714.1824 1.89697 3.0301 4.68424 4.1256 2.3164.9104 2.7879.7293 3.2905.6837.5029-.0454 1.6225-.661 1.8511-1.2991.2285-.6382.2285-1.1853.16-1.2995-.0687-.1139-.2516-.1822-.5257-.3188-.2743-.1368-1.6183-.8092-1.8697-.9005-.2514-.091-.4341-.1366-.6171.1371-.1829.2732-.7214.9053-.8814 1.0877-.1599.1825-.3199.2054-.5942.0686-.2743-.1371-1.1484-.4308-2.196-1.3617-.8154-.7246-1.38115-1.6485-1.54119-1.9221-.15985-.2734-.01702-.4213.12049-.5577.12323-.1223.28967-.2897.42682-.4492.13698-.15965.17598-.27354.26748-.45591.0914-.18238.0456-.34204-.0229-.47864-.0686-.13678-.59486-1.48828-.83876-2.02881h.00018c-.20544-.4552-.42169-.47058-.61706-.47864z"/></g></svg>